# xmcd
#
# Track frame offsets:
#	150
#	10974
#	22545
#	35266
#	45476
#	57027
#	67854
#	77263
#	89825
#	101285
#	111803
#	122921
#	133323
#	145645
#	156743
#	168652
#	179837
#	192859
#	204753
#	215816
#	228302
#	242011
#
# Disc length: 3378 seconds
#
# Revision: 1
# Processed by: cddbd v1.5.1PL0 Copyright (c) Steve Scherf et al.
# Submitted via: EasyCDDAExtractor 7.0.5.1
#
DISCID=290d3016
DTITLE=Arthur "Guitar Boogie" Smith - Have A Little Fun
DYEAR=2002
DGENRE=Country and Western
TTITLE0=Chew Tobacco Rag
TTITLE1=Big Mountain Shuffle
TTITLE2=Have A Little Fun
TTITLE3=Indian Boogie
TTITLE4=Blue Boogie
TTITLE5=Mr. Stalin, You're Eating To High On The Hog
TTITLE6=Chicken Strut
TTITLE7=He Went That A Way
TTITLE8=Lady Of Spain
TTITLE9=Somebody Left Another Young 'Un At Our House
TTITLE10=Dime A Dozen
TTITLE11=Midnight Rag
TTITLE12=Lasses
TTITLE13=Conversation With A Mule
TTITLE14=Mule Train
TTITLE15=Fiddle Faddle
TTITLE16=The Corset Song
TTITLE17=You're Hooked
TTITLE18=Oklahoma Polka
TTITLE19=Foolish Questions
TTITLE20=The Memphis Blues
TTITLE21=Careless Hands
EXTD=
EXTT0=
EXTT1=
EXTT2=
EXTT3=
EXTT4=
EXTT5=
EXTT6=
EXTT7=
EXTT8=
EXTT9=
EXTT10=
EXTT11=
EXTT12=
EXTT13=
EXTT14=
EXTT15=
EXTT16=
EXTT17=
EXTT18=
EXTT19=
EXTT20=
EXTT21=
PLAYORDER=
